HIERARCHY
ROOT Hips
{
 OFFSET 0.000000 0.000000 0.000000
 CHANNELS 6 Xposition Yposition Zposition Yrotation Xrotation Zrotation
 JOINT Chest
 {
  OFFSET 0.000000 14.374500 -0.011500
  CHANNELS 3 Yrotation Xrotation Zrotation
  JOINT Chest2
  {
   OFFSET 0.000000 9.203400 0.023400
   CHANNELS 3 Yrotation Xrotation Zrotation
   JOINT Chest3
   {
    OFFSET 0.000000 9.162700 0.000000
    CHANNELS 3 Yrotation Xrotation Zrotation
    JOINT Chest4
    {
     OFFSET 0.000000 9.153300 0.000000
     CHANNELS 3 Yrotation Xrotation Zrotation
     JOINT Neck
     {
      OFFSET 0.000000 13.353600 0.000000
      CHANNELS 3 Yrotation Xrotation Zrotation
      JOINT Head
      {
       OFFSET 0.000000 8.573800 0.049400
       CHANNELS 3 Yrotation Xrotation Zrotation
       End Site
       {
        OFFSET 0.000000 16.219200 0.026100
       }
      }
     }
     JOINT RightCollar
     {
      OFFSET -2.497100 8.876100 0.000000
      CHANNELS 3 Yrotation Xrotation Zrotation
      JOINT RightShoulder
      {
       OFFSET -12.289200 0.000000 0.000000
       CHANNELS 3 Yrotation Xrotation Zrotation
       JOINT RightElbow
       {
        OFFSET 0.000000 -28.194900 0.000000
        CHANNELS 3 Yrotation Xrotation Zrotation
        JOINT RightWrist
        {
         OFFSET 0.000000 -23.009700 0.007900
         CHANNELS 3 Yrotation Xrotation Zrotation
         End Site
         {
          OFFSET 0.000000 -17.151500 0.000000
         }
        }
       }
      }
     }
     JOINT LeftCollar
     {
      OFFSET 2.497100 8.876100 0.000000
      CHANNELS 3 Yrotation Xrotation Zrotation
      JOINT LeftShoulder
      {
       OFFSET 12.289200 0.000000 0.000000
       CHANNELS 3 Yrotation Xrotation Zrotation
       JOINT LeftElbow
       {
        OFFSET 0.000000 -28.194900 0.000000
        CHANNELS 3 Yrotation Xrotation Zrotation
        JOINT LeftWrist
        {
         OFFSET 0.000000 -23.009700 0.007900
         CHANNELS 3 Yrotation Xrotation Zrotation
         End Site
         {
          OFFSET 0.000000 -17.151500 0.000000
         }
        }
       }
      }
     }
    }
   }
  }
 }
 JOINT RightHip
 {
  OFFSET -11.777600 0.056700 0.005700
  CHANNELS 3 Yrotation Xrotation Zrotation
  JOINT RightKnee
  {
   OFFSET 0.000000 -39.966000 -0.004200
   CHANNELS 3 Yrotation Xrotation Zrotation
   JOINT RightAnkle
   {
    OFFSET 0.000000 -41.981900 0.027400
    CHANNELS 3 Yrotation Xrotation Zrotation
    JOINT RightToe
    {
     OFFSET 0.000000 -9.910600 16.950100
     CHANNELS 3 Yrotation Xrotation Zrotation
     End Site
     {
      OFFSET 0.000000 -1.461000 6.191600
     }
    }
   }
  }
 }
 JOINT LeftHip
 {
  OFFSET 11.777600 0.056700 0.005700
  CHANNELS 3 Yrotation Xrotation Zrotation
  JOINT LeftKnee
  {
   OFFSET 0.000000 -39.966000 -0.004200
   CHANNELS 3 Yrotation Xrotation Zrotation
   JOINT LeftAnkle
   {
    OFFSET 0.000000 -41.981900 0.027400
    CHANNELS 3 Yrotation Xrotation Zrotation
    JOINT LeftToe
    {
     OFFSET 0.000000 -9.910600 16.950100
     CHANNELS 3 Yrotation Xrotation Zrotation
     End Site
     {
      OFFSET 0.000000 -1.461000 6.191600
     }
    }
   }
  }
 }
}
MOTION
Frames: 12
Frame Time: 0.008333
0.000000 91.618700 0.000000 0.000000 -5.767877 0.000000 0.000000 11.653817 0.000000 0.000000 -5.885947 0.000000 0.000000 -0.000000 0.000000 0.000000 -0.000000 0.000000 0.000000 12.528835 0.000000 0.000000 0.711642 0.000000 0.000000 -0.000000 0.000000 0.000000 0.000000 -90.000000 0.000000 -2.309062 0.000000 0.000000 2.309062 0.000000 0.000000 -0.000000 0.000000 0.000000 -0.000000 90.000000 0.000000 -2.309062 0.000000 0.000000 2.309062 0.000000 0.000000 8.520406 0.000000 0.000000 1.905762 0.000000 -0.000000 -4.658285 0.000000 0.000000 -0.000000 0.000000 0.000000 8.520406 0.000000 0.000000 1.905762 0.000000 -0.000000 -4.658285 0.000000 0.000000 -0.000000 0.000000
-0.413991 152.721680 77.334396 176.299993 -47.705624 -2.665089 3.793976 28.944920 2.983888 0.530445 5.399459 0.465779 0.844775 8.445989 0.745895 2.735281 23.186883 2.487886 -0.522778 12.566765 -1.137489 -0.270515 -12.468904 -1.055947 1.133652 -4.251852 -0.021242 7.833236 -12.634265 -13.898884 7.490409 -77.712765 22.048553 20.534496 7.237067 -10.378728 -10.915394 -8.125089 -1.245280 -4.674113 -13.990566 9.178996 19.325644 -60.006133 -51.254263 -4.627944 26.857957 17.134117 7.673246 -29.931790 1.559370 -78.957321 83.896725 -82.792084 1.633518 -25.583625 9.486463 0.095928 -0.313388 0.086301 -1.106710 -26.134838 -4.962527 144.663567 71.120248 155.894937 -0.395763 -3.953312 -8.903847 0.205584 -6.802273 -0.863750
-1.713732 145.667562 79.189869 176.469401 -47.664469 -2.911809 3.728974 28.876703 3.098698 0.528764 5.396426 0.464266 0.851208 8.458382 0.752524 2.732465 23.184348 2.482565 -0.443449 12.535370 -1.115650 -0.192792 -12.500858 -1.053204 1.144320 -4.265015 -0.021858 7.829228 -12.616978 -13.888006 7.474075 -77.677623 22.068119 20.523440 7.224556 -10.382618 -10.914981 -8.145265 -1.235016 -4.671837 -13.975901 9.154120 19.255928 -59.991250 -51.167309 -4.629868 26.860118 17.115072 7.489313 -30.002008 1.693513 -79.176597 83.899660 -83.017609 1.665988 -25.702990 9.497028 0.056262 -0.218802 0.032902 -1.286105 -26.154008 -4.825551 144.628094 71.152812 155.863221 -0.329517 -3.866274 -8.870310 0.090262 0.100856 0.052767
-2.785669 139.858325 80.718116 176.598979 -47.632330 -3.101811 3.685012 28.836277 3.197165 0.529947 5.397537 0.465003 0.850649 8.456862 0.751958 2.710884 23.160398 2.467592 -0.355502 12.517477 -1.091194 -0.119489 -12.533109 -1.049448 1.169278 -4.265809 -0.021275 7.820795 -12.597367 -13.876952 7.466756 -77.643306 22.078861 20.519744 7.208208 -10.390711 -10.900527 -8.152179 -1.230545 -4.670099 -13.965103 9.131114 19.165204 -59.967276 -51.059226 -4.623586 26.842797 17.101906 7.348667 -30.059799 1.795726 -79.372039 83.894773 -83.214975 1.687964 -25.796396 9.508683 0.019227 -0.130021 0.011245 -1.424589 -26.168880 -4.718711 144.605637 71.177248 155.843082 -0.281441 -3.795010 -8.845586 0.044448 0.062336 0.025991
-3.559328 135.664637 81.820747 176.679779 -47.621328 -3.231761 3.666640 28.821706 3.274703 0.528315 5.394202 0.463578 0.850215 8.455256 0.751514 2.712840 23.163071 2.468446 -0.294739 12.470489 -1.072283 -0.051878 -12.565750 -1.044423 1.176171 -4.294548 -0.031816 7.809018 -12.589427 -13.860079 7.548923 -77.592549 22.008554 20.505519 7.176819 -10.411392 -10.905669 -8.189061 -1.226778 -4.665480 -13.949126 9.110148 19.090805 -59.940667 -50.972294 -4.623039 26.832194 17.080266 7.250403 -30.087940 1.874436 -79.461755 83.893764 -83.305499 1.697324 -25.862489 9.509270 0.003555 -0.065695 0.002079 -1.515548 -26.165340 -4.637144 144.599232 71.195739 155.837943 -0.253310 -3.737044 -8.822054 0.018028 0.039261 0.010543
-4.050019 133.015570 82.517898 176.738113 -47.614589 -3.311492 3.635586 28.804950 3.307762 0.527549 5.392127 0.462930 0.844421 8.438850 0.746763 2.716019 23.173378 2.469110 -0.226552 12.436212 -1.053207 0.008654 -12.600045 -1.035595 1.195987 -4.308789 -0.043688 7.799355 -12.583950 -13.849899 7.541168 -77.557980 22.026249 20.502345 7.155131 -10.438570 -10.896998 -8.210207 -1.225445 -4.661439 -13.947308 9.082160 18.992328 -59.892057 -50.861409 -4.635753 26.814754 17.040469 7.189375 -30.104840 1.914706 -79.550420 83.898649 -83.393601 1.693162 -25.908837 9.507586 0.000214 -0.025131 0.000125 -1.578514 -26.167302 -4.594514 144.615796 71.208361 155.853824 -0.237152 -3.693787 -8.814490 0.004972 0.016091 0.002907
-4.323409 131.559194 82.901025 176.752649 -47.618494 -3.328505 3.623262 28.795262 3.308479 0.527211 5.390609 0.462362 0.848727 8.449890 0.749729 2.705635 23.138766 2.455994 -0.162154 12.418891 -1.024246 0.062046 -12.637657 -1.022754 1.218837 -4.332125 -0.057035 7.775881 -12.550289 -13.825408 7.552559 -77.515602 22.031222 20.507514 7.111522 -10.488909 -10.890894 -8.206264 -1.220107 -4.661385 -13.957466 9.049947 18.914407 -59.853362 -50.774598 -4.639243 26.806159 17.018557 7.174476 -30.102731 1.920762 -79.571183 83.903576 -83.415028 1.690266 -25.924489 9.503003 -0.000012 -0.013679 -0.000007 -1.594607 -26.163442 -4.584144 144.619466 71.214485 155.849698 -0.236882 -3.674012 -8.802406 -0.001412 0.009755 -0.000826
-4.452919 130.866878 83.083322 176.750144 -47.629970 -3.332384 3.622842 28.782273 3.309633 0.527550 5.400229 0.463122 0.849274 8.447916 0.748162 2.710191 23.134583 2.455050 -0.109903 12.378310 -0.998640 0.110306 -12.678754 -1.007971 1.221754 -4.327148 -0.057637 7.768312 -12.572866 -13.831379 7.528964 -77.459765 22.079499 20.525319 7.056017 -10.554218 -10.892667 -8.202331 -1.217577 -4.668792 -13.974152 9.026503 18.851273 -59.810474 -50.699754 -4.649791 26.780032 17.003240 7.167568 -30.091686 1.931371 -79.560648 83.906883 -83.409314 1.693228 -25.932945 9.496192 0.002112 -0.009404 0.001235 -1.598487 -26.154181 -4.569957 144.634207 71.217719 155.861207 -0.246367 -3.657590 -8.794506 -0.002164 0.004767 -0.001265
-4.505891 130.582799 83.159585 176.751165 -47.633162 -3.335920 3.624045 28.779682 3.312380 0.528784 5.378228 0.460199 0.849958 8.440696 0.747170 2.713071 23.147757 2.458441 -0.061695 12.334027 -0.972463 0.154331 -12.723524 -0.991777 1.222680 -4.320604 -0.059229 7.762449 -12.571069 -13.827483 7.555682 -77.436812 22.071443 20.544568 7.000952 -10.625869 -10.896238 -8.197447 -1.216178 -4.683912 -13.989363 9.003720 18.794579 -59.773332 -50.628802 -4.654101 26.763572 17.004538 7.161419 -30.087412 1.937568 -79.527297 83.902286 -83.379799 1.692757 -25.933155 9.492955 0.000014 -0.007070 0.000008 -1.611450 -26.156720 -4.554991 144.642033 71.217887 155.861201 -0.262401 -3.640581 -8.787998 -0.000732 0.004319 -0.000428
-4.524321 130.483385 83.187627 176.752107 -47.634209 -3.337948 3.624897 28.774809 3.313725 0.529331 5.373473 0.459524 0.850554 8.438457 0.746877 2.715799 23.139979 2.458759 -0.015769 12.286480 -0.945978 0.195908 -12.771486 -0.974828 1.234506 -4.334887 -0.071642 7.738634 -12.557399 -13.815590 7.641161 -77.404427 22.025812 20.546906 6.935214 -10.717218 -10.898301 -8.211611 -1.213030 -4.693267 -13.970533 8.986501 18.746770 -59.756498 -50.583809 -4.647181 26.724367 16.996377 7.158738 -30.085741 1.939494 -79.508285 83.901569 -83.362472 1.696477 -25.932144 9.490175 0.000616 -0.006603 0.000360 -1.615226 -26.158139 -4.551928 144.638170 71.219156 155.861307 -0.267241 -3.629855 -8.792697 0.000972 0.003409 0.000568
-4.529747 130.455052 83.196174 176.753615 -47.641483 -3.339481 3.625450 28.769781 3.313490 0.528655 5.382191 0.460740 0.850806 8.437821 0.746790 2.718005 23.128866 2.459645 0.029882 12.232730 -0.919161 0.237015 -12.820906 -0.956904 1.247345 -4.349047 -0.080348 7.740422 -12.554498 -13.830149 7.520143 -77.375460 22.139673 20.558227 6.905784 -10.749184 -10.904893 -8.258096 -1.211857 -4.697174 -13.924512 8.966753 18.701989 -59.745903 -50.541075 -4.656831 26.634487 16.968972 7.150151 -30.072491 1.942553 -79.449228 83.899870 -83.306915 1.699061 -25.933164 9.486954 0.000759 -0.004014 0.000444 -1.618045 -26.154305 -4.551184 144.634371 71.223323 155.862148 -0.270553 -3.612742 -8.797885 0.003101 -0.000562 0.001813
-4.531650 130.448963 83.198565 176.753406 -47.650417 -3.337444 3.625466 28.760815 3.312156 0.526802 5.388523 0.461004 0.851430 8.433656 0.747216 2.718588 23.139564 2.460297 0.076429 12.168071 -0.890727 0.277832 -12.872696 -0.936143 1.278316 -4.402903 -0.109953 7.717374 -12.510949 -13.811503 7.466057 -77.350590 22.193723 20.592723 6.828414 -10.823159 -10.909516 -8.294738 -1.213809 -4.719372 -13.912301 8.940801 18.626116 -59.726421 -50.442051 -4.648852 26.611799 16.968731 7.144705 -30.055797 1.938399 -79.402153 83.898473 -83.258430 1.702867 -25.939365 9.477483 -0.001007 -0.001570 -0.000589 -1.619921 -26.149909 -4.552242 144.646414 71.225779 155.871530 -0.271131 -3.587378 -8.796072 0.002353 0.001715 0.001376
